<?xml version="1.0" standalone="no"?>
<!DOCTYPE svg PUBLIC "-//W3C//DTD SVG 20010904//EN"
 "http://www.w3.org/TR/2001/REC-SVG-20010904/DTD/svg10.dtd">
<svg version="1.0" xmlns="http://www.w3.org/2000/svg"
 width="500.000000pt" height="500.000000pt" viewBox="0 0 500.000000 500.000000"
 preserveAspectRatio="xMidYMid meet">

<g transform="translate(0.000000,500.000000) scale(0.100000,-0.100000)"
fill="#000000" stroke="none">
<path d="M1802 2957 c2 -6 21 -76 43 -155 36 -129 42 -142 62 -142 24 0 29 9
15 25 -5 6 -26 72 -47 148 -32 115 -41 137 -57 137 -11 0 -18 -6 -16 -13z"/>
<path d="M2166 2961 c-4 -5 -2 -11 2 -13 5 -1 26 -65 47 -142 35 -124 54 -161
72 -143 6 6 -62 257 -79 290 -9 18 -33 23 -42 8z"/>
<path d="M2376 2818 c1 -134 3 -153 17 -156 15 -3 17 12 17 152 0 142 -2 156
-17 156 -16 0 -18 -14 -17 -152z"/>
<path d="M2624 2957 c-2 -7 -3 -76 -2 -152 3 -124 5 -140 21 -143 16 -3 17 9
17 152 0 133 -2 156 -15 156 -9 0 -18 -6 -21 -13z"/>
<path d="M2738 2963 c7 -3 16 -2 19 1 4 3 -2 6 -13 5 -11 0 -14 -3 -6 -6z"/>
<path d="M2770 2960 c0 -5 5 -10 10 -10 6 0 10 5 10 10 0 6 -4 10 -10 10 -5 0
-10 -4 -10 -10z"/>
<path d="M2880 2963 c0 -3 6 -14 13 -22 11 -13 91 -140 164 -258 11 -20 53
-33 53 -18 0 3 -32 56 -71 118 -40 61 -83 129 -96 150 -14 22 -31 37 -43 37
-11 0 -20 -3 -20 -7z"/>
<path d="M3180 2960 c0 -12 8 -12 35 0 18 8 17 9 -7 9 -16 1 -28 -3 -28 -9z"/>
<path d="M3271 2815 c-2 -151 -2 -155 18 -155 20 0 21 5 21 155 0 143 -1 155
-18 155 -17 0 -18 -13 -21 -155z"/>
<path d="M3375 2960 c3 -5 10 -10 16 -10 5 0 9 5 9 10 0 6 -7 10 -16 10 -8 0
-12 -4 -9 -10z"/>
<path d="M3480 2965 c0 -3 -1 -71 -1 -152 0 -135 1 -148 18 -151 17 -3 18 8
18 153 0 141 -2 155 -17 155 -10 0 -18 -2 -18 -5z"/>
<path d="M3595 2960 c-3 -5 -2 -10 2 -10 5 0 49 -65 98 -145 73 -117 94 -145
113 -145 12 0 22 5 22 10 0 6 -3 10 -8 10 -4 0 -48 65 -97 145 -85 138 -111
165 -130 135z"/>
<path d="M3990 2963 c0 -5 20 -73 44 -153 31 -103 48 -146 60 -148 9 -2 16 2
16 8 0 14 -67 248 -80 278 -9 20 -40 32 -40 15z"/>
<path d="M2713 2823 c9 -2 25 -2 35 0 9 3 1 5 -18 5 -19 0 -27 -2 -17 -5z"/>
<path d="M2881 2674 c0 -11 3 -14 6 -6 3 7 2 16 -1 19 -3 4 -6 -2 -5 -13z"/>
<path d="M2515 2670 c-19 -8 -19 -9 2 -9 12 -1 25 4 28 9 7 12 -2 12 -30 0z"/>
<path d="M2780 2670 c-23 -7 -23 -8 -3 -9 12 -1 25 4 28 9 3 6 5 10 3 9 -2 -1
-14 -5 -28 -9z"/>
<path d="M2364 2265 c0 -88 2 -123 3 -77 2 46 2 118 0 160 -1 42 -3 5 -3 -83z"/>
<path d="M4008 2413 c7 -3 16 -2 19 1 4 3 -2 6 -13 5 -11 0 -14 -3 -6 -6z"/>
<path d="M2064 2255 c0 -88 2 -123 3 -77 2 46 2 118 0 160 -1 42 -3 5 -3 -83z"/>
<path d="M3494 2255 c0 -88 2 -123 3 -77 2 46 2 118 0 160 -1 42 -3 5 -3 -83z"/>
<path d="M3584 2255 c0 -88 2 -123 3 -77 2 46 2 118 0 160 -1 42 -3 5 -3 -83z"/>
<path d="M3674 2260 c0 -85 2 -120 3 -77 2 42 2 112 0 155 -1 42 -3 7 -3 -78z"/>
<path d="M3894 2260 c0 -80 2 -112 3 -72 2 39 2 105 0 145 -1 39 -3 7 -3 -73z"/>
<path d="M2666 2381 c4 -8 11 -28 15 -45 6 -29 7 -29 8 -5 1 14 -6 34 -15 45
-8 10 -12 13 -8 5z"/>
<path d="M1811 2364 c0 -11 3 -14 6 -6 3 7 2 16 -1 19 -3 4 -6 -2 -5 -13z"/>
<path d="M3220 2371 c0 -6 4 -13 10 -16 6 -3 7 1 4 9 -7 18 -14 21 -14 7z"/>
<path d="M2533 2310 c0 -36 2 -50 4 -32 2 17 2 47 0 65 -2 17 -4 3 -4 -33z"/>
<path d="M3101 2340 c14 -31 19 -36 19 -24 0 6 -7 19 -16 30 -14 18 -14 18 -3
-6z"/>
<path d="M2816 2325 c-3 -9 -6 -24 -5 -33 0 -9 5 -4 10 12 9 32 6 48 -5 21z"/>
<path d="M3240 2335 c0 -5 5 -17 10 -25 5 -8 10 -10 10 -5 0 6 -5 17 -10 25
-5 8 -10 11 -10 5z"/>
<path d="M1831 2294 c0 -11 3 -14 6 -6 3 7 2 16 -1 19 -3 4 -6 -2 -5 -13z"/>
<path d="M3119 2255 c-4 -27 -9 -59 -13 -70 -3 -11 1 -5 9 14 9 18 15 50 13
70 -3 33 -4 32 -9 -14z"/>
<path d="M3266 2277 c3 -10 9 -15 12 -12 3 3 0 11 -7 18 -10 9 -11 8 -5 -6z"/>
<path d="M2811 2232 c-1 -22 24 -82 35 -82 2 0 -1 10 -7 23 -7 12 -16 36 -20
52 -6 25 -7 26 -8 7z"/>
<path d="M1851 2224 c0 -11 3 -14 6 -6 3 7 2 16 -1 19 -3 4 -6 -2 -5 -13z"/>
<path d="M2532 2220 c0 -14 2 -19 5 -12 2 6 2 18 0 25 -3 6 -5 1 -5 -13z"/>
<path d="M2651 2190 c14 -31 19 -36 19 -24 0 6 -7 19 -16 30 -14 18 -14 18 -3
-6z"/>
<path d="M3310 2185 c0 -5 5 -17 10 -25 5 -8 10 -10 10 -5 0 6 -5 17 -10 25
-5 8 -10 11 -10 5z"/>
<path d="M1871 2154 c0 -11 3 -14 6 -6 3 7 2 16 -1 19 -3 4 -6 -2 -5 -13z"/>
<path d="M2532 2135 c0 -16 2 -22 5 -12 2 9 2 23 0 30 -3 6 -5 -1 -5 -18z"/>
<path d="M1880 2120 c0 -5 5 -10 11 -10 5 0 7 5 4 10 -3 6 -8 10 -11 10 -2 0
-4 -4 -4 -10z"/>
<path d="M3773 2103 c9 -2 23 -2 30 0 6 3 -1 5 -18 5 -16 0 -22 -2 -12 -5z"/>
<path d="M2118 1853 c7 -3 16 -2 19 1 4 3 -2 6 -13 5 -11 0 -14 -3 -6 -6z"/>
<path d="M3128 1853 c7 -3 16 -2 19 1 4 3 -2 6 -13 5 -11 0 -14 -3 -6 -6z"/>
<path d="M2943 1800 c0 -30 2 -43 4 -27 2 15 2 39 0 55 -2 15 -4 2 -4 -28z"/>
<path d="M2443 1805 c0 -22 2 -30 4 -17 2 12 2 30 0 40 -3 9 -5 -1 -4 -23z"/>
<path d="M2822 1810 c0 -14 2 -19 5 -12 2 6 2 18 0 25 -3 6 -5 1 -5 -13z"/>
<path d="M3182 1805 c0 -16 2 -22 5 -12 2 9 2 23 0 30 -3 6 -5 -1 -5 -18z"/>
<path d="M2968 1753 c7 -3 16 -2 19 1 4 3 -2 6 -13 5 -11 0 -14 -3 -6 -6z"/>
</g>
</svg>
