<?xml version="1.0" standalone="no"?>
<!DOCTYPE svg PUBLIC "-//W3C//DTD SVG 20010904//EN"
 "http://www.w3.org/TR/2001/REC-SVG-20010904/DTD/svg10.dtd">
<svg version="1.0" xmlns="http://www.w3.org/2000/svg"
 width="2048.000000pt" height="2048.000000pt" viewBox="0 0 2048.000000 2048.000000"
 preserveAspectRatio="xMidYMid meet">

<g transform="translate(0.000000,2048.000000) scale(0.100000,-0.100000)"
fill="#000000" stroke="none">
<path d="M0 10240 l0 -10240 10240 0 10240 0 0 10240 0 10240 -10240 0 -10240
0 0 -10240z m9270 4946 l0 -73 -79 -7 c-104 -8 -165 -28 -237 -74 -86 -56
-140 -137 -167 -253 l-7 -26 168 -11 c184 -13 257 -26 410 -74 l103 -32 55 57
c67 68 184 148 258 176 167 62 321 46 516 -55 112 -58 205 -129 313 -237 171
-174 288 -354 378 -581 165 -417 180 -868 45 -1378 -134 -510 -385 -950 -745
-1309 l-127 -125 24 -55 c13 -30 65 -151 114 -269 50 -118 121 -287 158 -375
259 -616 326 -777 345 -833 l21 -64 34 79 c18 43 60 143 92 223 33 80 66 158
73 173 15 30 5 66 -114 394 -49 135 -86 275 -102 384 -17 117 -7 334 21 434
51 188 167 373 305 484 174 141 358 211 556 211 67 0 81 3 86 18 14 40 183
468 285 722 246 614 430 1100 477 1264 65 229 95 449 81 601 -12 120 -23 164
-63 239 -63 119 -166 192 -332 236 -79 20 -295 50 -368 50 l-38 0 3 77 3 77
1187 0 c980 1 1189 -1 1193 -12 8 -22 6 -89 -4 -115 -8 -21 -18 -26 -68 -31
-91 -11 -252 -52 -339 -86 -467 -186 -745 -557 -1112 -1490 -44 -113 -145
-367 -223 -565 -249 -632 -410 -1047 -407 -1050 2 -1 29 -16 61 -35 114 -64
206 -174 249 -299 29 -84 31 -251 4 -351 -41 -153 -148 -316 -267 -406 -81
-61 -102 -74 -121 -74 -31 0 -20 14 40 50 84 50 210 181 254 265 88 168 113
367 63 510 -43 122 -128 222 -242 287 -29 17 -53 36 -53 43 0 31 -251 95 -268
68 -4 -5 -61 -15 -127 -21 -169 -16 -288 -59 -425 -152 -224 -152 -379 -436
-397 -725 -11 -181 19 -325 146 -690 75 -217 80 -228 91 -200 6 17 167 421
357 899 l346 868 56 -5 c57 -6 174 -39 200 -56 15 -10 20 3 -226 -621 -47
-118 -125 -316 -173 -440 -49 -124 -123 -313 -165 -420 -42 -107 -110 -280
-150 -385 -40 -104 -114 -293 -163 -420 -50 -126 -147 -376 -217 -555 -120
-309 -227 -581 -353 -899 -41 -102 -63 -145 -77 -151 -11 -4 -96 -9 -189 -11
l-168 -4 -140 329 -140 328 31 67 c44 96 62 172 68 294 7 127 -6 232 -54 452
-41 190 -72 355 -66 355 2 0 34 -18 70 -40 105 -63 165 -83 274 -88 77 -3 111
0 173 17 74 20 96 21 96 1 0 -8 208 -502 214 -508 2 -1 11 19 21 45 9 27 42
105 72 175 l55 128 -55 127 c-52 123 -314 744 -526 1247 -55 131 -103 241
-105 244 -3 2 -39 -21 -81 -53 -84 -63 -163 -110 -171 -102 -6 5 9 17 146 119
60 45 85 69 83 83 -1 11 -33 94 -72 185 -40 91 -75 173 -79 184 -5 12 -20 -50
-41 -175 -43 -254 -51 -290 -62 -284 -8 6 -10 0 -26 -85 -8 -43 -11 -46 -73
-77 -105 -51 -327 -121 -454 -143 -65 -11 -123 -20 -130 -20 -13 0 -17 10 -87
198 -175 474 -271 1158 -240 1707 14 229 59 616 74 631 2 2 59 -128 127 -289
68 -160 265 -625 438 -1032 173 -407 325 -764 337 -793 29 -69 35 -73 35 -26
0 21 11 104 25 184 14 80 31 175 37 211 l11 67 -121 283 c-253 595 -657 1556
-722 1719 -23 58 -45 109 -49 113 -7 7 -80 -249 -107 -368 -3 -16 -12 -35 -19
-40 -16 -14 -51 -217 -71 -412 -55 -556 -9 -1144 131 -1678 35 -134 114 -372
145 -437 l18 -37 -52 -6 c-101 -13 -103 -11 -148 95 -22 52 -84 199 -138 325
-54 127 -130 309 -170 405 -85 207 -187 452 -315 755 -51 121 -115 274 -143
340 -78 187 -275 656 -385 915 -54 129 -113 268 -129 307 l-30 73 -28 -20
c-94 -67 -181 -213 -200 -338 -9 -55 -20 -85 -47 -124 -91 -131 -115 -248 -87
-418 21 -131 28 -204 20 -234 -3 -12 -28 -53 -55 -90 -92 -124 -91 -206 3
-403 75 -158 69 -210 -31 -244 -39 -12 -75 -9 -81 9 -2 8 7 12 25 12 16 0 49
10 73 23 41 20 45 25 42 55 -2 18 -27 83 -57 145 -99 209 -96 299 17 441 21
27 41 60 44 72 3 13 -4 72 -16 131 -45 216 -24 364 69 505 42 63 50 82 55 138
8 90 66 206 143 286 32 33 68 67 80 75 l22 14 -78 181 c-142 328 -187 416
-275 533 -53 70 -161 161 -245 205 -121 63 -351 118 -593 139 l-133 12 -3 78
-3 77 1293 3 c711 1 1386 3 1501 5 l207 2 0 -74z m-1943 -3068 c-3 -8 -6 -5
-6 6 -1 11 2 17 5 13 3 -3 4 -12 1 -19z m-33 -125 c-42 -106 -88 -195 -191
-365 -96 -159 -133 -243 -133 -298 0 -47 36 -107 82 -137 40 -27 49 -28 193
-33 137 -5 156 -8 200 -31 73 -37 110 -94 110 -168 -1 -49 -6 -66 -42 -123
-23 -36 -45 -77 -48 -90 -9 -37 32 -89 95 -120 30 -15 68 -34 84 -43 l28 -15
-46 -50 c-53 -56 -66 -85 -66 -142 0 -55 40 -91 133 -119 53 -16 81 -31 109
-59 49 -49 52 -93 16 -235 -35 -138 -11 -243 73 -325 53 -52 97 -74 174 -90
77 -16 150 -8 345 37 316 73 486 37 663 -141 81 -81 120 -143 296 -475 237
-446 325 -644 400 -897 25 -85 26 -94 6 -94 -9 0 -15 9 -15 23 0 43 -108 343
-177 492 -94 204 -374 733 -436 823 -97 141 -220 233 -360 268 -90 23 -221 14
-377 -27 -109 -29 -142 -33 -255 -33 -123 -1 -133 1 -187 27 -72 35 -130 93
-165 165 -35 72 -37 161 -4 286 14 54 21 101 17 119 -10 50 -52 85 -131 108
-54 17 -80 31 -112 64 -39 38 -43 47 -43 90 0 55 33 121 77 153 16 11 26 22
23 24 -3 2 -35 19 -73 37 -46 22 -75 44 -92 69 -37 54 -33 94 20 182 51 85 57
126 24 180 -49 79 -86 93 -265 100 -146 5 -152 6 -200 35 -94 59 -121 161 -72
282 13 32 67 133 120 223 53 91 124 218 158 283 34 65 64 116 67 113 2 -2 -8
-35 -23 -73z m2576 -959 c0 -12 -7 -27 -15 -34 -13 -11 -15 -5 -15 41 1 50 2
52 15 35 8 -11 15 -30 15 -42z m78 -191 c33 -76 98 -228 145 -338 47 -110 137
-323 201 -472 64 -150 116 -277 116 -283 0 -15 -68 -40 -145 -52 -101 -16
-194 2 -304 58 -130 66 -144 81 -153 156 -16 137 -21 505 -9 673 18 261 30
367 42 382 29 34 46 15 107 -124z m-162 -108 c-17 -201 -21 -636 -6 -770 4
-44 6 -82 4 -84 -7 -8 -160 147 -240 242 -123 146 -285 403 -358 569 l-26 58
23 4 c12 3 74 15 137 26 131 24 290 74 400 125 41 19 76 30 78 25 2 -5 -4 -93
-12 -195z m-1231 70 c105 -15 239 -29 299 -33 81 -5 111 -11 114 -21 7 -20
-163 -9 -418 25 -364 50 -541 36 -727 -57 -97 -49 -132 -47 -53 3 70 44 168
83 245 97 33 6 71 13 85 15 53 10 273 -5 455 -29z m638 -187 c138 -274 276
-467 472 -664 l131 -132 13 -83 c7 -46 32 -174 56 -284 46 -208 65 -333 65
-421 0 -76 -26 -213 -56 -294 -32 -84 -36 -83 -82 30 -17 41 -58 138 -92 214
-93 210 -333 782 -502 1196 -192 468 -218 534 -218 546 0 9 20 14 58 17 31 2
64 4 73 5 11 1 36 -39 82 -130z m5200 -4583 c136 -35 234 -115 292 -238 108
-228 28 -490 -183 -600 -92 -47 -156 -61 -268 -55 -80 4 -103 10 -168 41 -85
40 -155 100 -193 164 -79 136 -84 320 -12 470 29 61 120 153 179 181 107 51
244 65 353 37z m-10344 -5 c10 -5 24 -24 31 -42 13 -33 78 -176 269 -593 56
-120 101 -225 101 -232 0 -9 -19 -13 -70 -13 -81 0 -75 -7 -141 147 l-44 103
-210 0 -211 0 -53 -125 c-53 -125 -53 -125 -87 -125 -40 0 -44 -17 46 185 90
202 195 443 252 575 57 133 70 146 117 120z m1846 -20 l0 -25 -222 -3 -222 -2
-3 -168 c-2 -92 -2 -170 0 -174 2 -5 91 -8 198 -8 l194 0 0 -25 0 -25 -195 0
-195 0 0 -185 0 -185 225 0 225 0 0 -30 0 -30 -295 0 -295 0 0 440 0 439 143
4 c78 1 210 3 292 2 l150 0 0 -25z m549 -291 l326 -321 0 315 c0 329 0 330 43
319 16 -4 17 -34 17 -444 0 -279 -4 -438 -10 -436 -5 2 -155 146 -334 321
-178 174 -328 317 -333 317 -4 0 -7 -134 -5 -297 1 -164 0 -308 -3 -320 -4
-18 -13 -23 -35 -23 l-30 0 0 438 c0 241 3 442 7 445 3 4 12 7 18 7 7 0 159
-144 339 -321z m1274 289 l3 -28 -150 0 -151 0 0 -409 c0 -226 -3 -412 -7
-414 -5 -2 -36 -2 -70 1 l-63 4 -2 407 -3 406 -153 3 c-159 3 -174 7 -158 47
5 13 53 15 378 13 l373 -3 3 -27z m1876 11 c8 -12 38 -74 67 -138 29 -64 85
-189 125 -278 41 -89 74 -164 74 -167 0 -3 27 -64 60 -137 41 -89 58 -135 51
-142 -7 -7 -33 -7 -78 -1 l-67 9 -52 115 -52 115 -210 3 -211 2 -7 -22 c-3
-13 -27 -69 -51 -125 -42 -97 -47 -103 -74 -103 -35 0 -35 3 -5 71 13 30 63
144 111 254 172 394 247 554 264 558 32 9 40 7 55 -14z m2386 -9 l0 -30 -220
0 -219 0 -3 -171 c-2 -94 -1 -173 1 -175 2 -2 91 -4 198 -4 l193 0 0 -25 c0
-25 0 -25 -97 -25 -54 0 -142 -3 -195 -7 l-98 -6 0 -179 0 -178 231 0 230 0
-3 -27 -3 -28 -297 -3 -298 -2 0 440 0 440 183 3 c100 1 230 3 290 5 l107 2 0
-30z m868 -2 l3 -28 -155 0 -155 0 6 -409 6 -410 -25 -6 c-13 -3 -47 -5 -74
-3 l-49 3 -3 413 -2 412 -150 0 -150 0 0 30 0 30 373 -2 372 -3 3 -27z m502
18 c116 -4 182 -29 239 -91 113 -123 45 -322 -126 -368 -24 -6 -43 -14 -43
-18 0 -3 9 -14 21 -25 11 -10 35 -39 53 -64 18 -25 74 -102 124 -171 51 -69
92 -129 92 -133 0 -12 -156 -6 -172 7 -9 6 -71 94 -138 195 l-123 182 -66 0
c-36 0 -72 -4 -79 -9 -11 -7 -13 -46 -10 -192 l3 -184 -67 -3 -68 -3 0 440 c0
342 3 440 13 444 11 3 112 2 347 -7z m4400 -16 l0 -30 -219 0 c-121 0 -221 -3
-223 -7 -2 -5 -2 -83 0 -175 l3 -168 199 0 200 0 0 -24 0 -24 -200 -7 -200 -8
0 -178 0 -179 225 0 225 0 0 -30 0 -30 -295 0 -295 0 0 440 0 440 268 3 c147
1 277 3 290 5 18 2 22 -3 22 -28z m-14787 -20 c9 -19 76 -174 147 -345 72
-170 134 -313 138 -317 5 -5 29 42 54 104 244 608 240 598 270 598 15 0 28 -2
28 -6 0 -5 -214 -535 -298 -737 -27 -65 -54 -123 -59 -128 -6 -6 -25 -9 -43
-7 l-33 3 -132 305 c-72 168 -149 348 -172 400 -23 52 -49 112 -58 133 l-16
38 78 -3 78 -3 18 -35z m1767 -370 l0 -410 220 0 220 0 0 -30 0 -30 -290 0
-290 0 0 440 0 440 70 0 70 0 0 -410z m3270 -30 l0 -440 -65 0 -65 0 0 168 c0
92 -3 290 -6 440 l-7 272 72 0 71 0 0 -440z m595 123 l320 -318 3 318 2 317
28 0 27 0 1 -440 c0 -333 -3 -440 -11 -438 -7 2 -157 145 -333 318 -177 173
-326 316 -332 318 -7 3 -10 -101 -10 -317 l0 -321 -24 0 c-13 0 -26 6 -29 14
-3 7 -3 205 0 440 5 378 8 426 22 426 9 0 160 -143 336 -317z m2007 295 c8
-13 63 -138 122 -278 60 -140 123 -288 140 -329 17 -40 35 -73 40 -73 5 1 50
101 101 224 216 523 194 478 227 478 36 0 40 14 -64 -235 -44 -104 -108 -257
-143 -340 -34 -82 -77 -185 -95 -228 l-32 -78 -40 3 -40 3 -60 135 c-32 74
-85 198 -118 275 -32 77 -90 212 -129 300 -39 87 -71 160 -71 162 0 2 33 3 74
3 66 0 75 -2 88 -22z m4457 -12 c12 -19 93 -166 180 -326 l159 -292 71 133
c39 74 115 221 168 326 l98 193 58 0 57 0 -2 -437 -3 -438 -65 0 -65 0 -3 340
c-2 320 -3 338 -19 315 -9 -13 -84 -152 -165 -309 -150 -287 -164 -311 -178
-311 -5 0 -22 24 -38 53 -206 367 -316 557 -321 557 -3 0 -5 -120 -5 -267 1
-148 -1 -294 -3 -325 -4 -53 -7 -58 -29 -58 l-24 0 0 440 0 440 54 0 c51 0 56
-2 75 -34z m1166 -68 c3 -57 5 -254 3 -438 l-3 -335 -67 -3 -67 -3 -3 397 c-2
219 -1 417 1 441 l3 43 63 0 63 0 7 -102z m365 -308 l0 -410 220 0 220 0 0
-30 0 -30 -287 2 -288 3 -3 438 -2 437 70 0 70 0 0 -410z"/>
<path d="M8788 15084 c-196 -35 -319 -149 -344 -318 -6 -46 -5 -49 12 -41 11
4 78 12 151 18 l132 10 6 38 c16 93 99 213 200 286 l30 22 -55 0 c-30 -1 -90
-7 -132 -15z"/>
<path d="M9841 14864 c-83 -22 -178 -77 -268 -155 -46 -40 -83 -74 -83 -78 0
-3 28 -17 63 -30 34 -13 105 -46 158 -72 438 -223 669 -538 669 -914 0 -143
-24 -282 -95 -556 -166 -640 -252 -998 -310 -1281 l-24 -116 89 -211 c50 -116
90 -215 90 -221 0 -26 32 -1 140 108 144 146 219 238 336 414 389 582 560
1302 450 1891 -86 457 -331 850 -678 1088 -189 129 -378 176 -537 133z"/>
<path d="M8340 14695 c-334 -92 -574 -263 -685 -488 -44 -91 -68 -177 -47
-177 5 0 13 16 16 35 4 19 27 76 53 126 74 148 227 291 408 382 63 31 212 84
287 102 l57 13 5 -57 c11 -107 47 -277 83 -381 34 -102 238 -585 323 -765 l42
-90 33 126 c18 69 45 163 59 207 l25 81 -80 188 c-136 318 -189 502 -189 659
l0 64 -52 0 c-29 0 -93 -5 -143 -10 -58 -6 -91 -6 -93 0 -5 12 -1 13 -102 -15z"/>
<path d="M8780 14639 c0 -114 34 -249 114 -451 72 -183 125 -303 130 -297 2 2
23 51 46 109 78 197 199 411 310 548 28 35 49 66 46 69 -2 3 -42 16 -88 29
-117 35 -281 61 -430 69 l-128 7 0 -83z"/>
<path d="M9438 14573 c-39 -42 -129 -170 -183 -263 -51 -86 -156 -312 -194
-416 l-22 -61 216 -514 c120 -283 239 -566 265 -629 26 -63 105 -250 175 -415
147 -347 221 -524 228 -545 4 -13 5 -13 10 0 3 8 25 103 47 210 41 190 179
753 280 1135 28 105 60 242 72 305 28 149 30 326 4 425 -24 91 -84 221 -140
298 -94 132 -302 304 -469 388 -81 41 -238 109 -252 109 -6 0 -23 -12 -37 -27z"/>
<path d="M14160 5979 c-124 -56 -200 -201 -200 -380 0 -256 118 -413 311 -411
146 1 242 88 294 267 13 45 16 84 13 169 -4 100 -7 118 -38 184 -39 85 -114
161 -177 180 -62 18 -151 15 -203 -9z"/>
<path d="M3967 5838 c-3 -7 -42 -96 -86 -197 -45 -101 -81 -186 -81 -187 0 -2
81 -4 180 -4 99 0 180 4 180 9 0 17 -169 386 -178 389 -5 1 -12 -3 -15 -10z"/>
<path d="M9453 5733 c-28 -65 -67 -155 -87 -200 l-35 -83 184 0 183 0 -55 123
c-31 67 -70 156 -89 197 -18 41 -37 76 -42 78 -5 1 -31 -50 -59 -115z"/>
<path d="M13130 5784 l0 -197 108 5 c120 5 169 23 215 78 62 74 56 191 -13
254 -50 45 -92 56 -212 56 l-98 0 0 -196z"/>
</g>
</svg>
